# xmcd
#
# Track frame offsets:
#	150
#	17714
#	36178
#	53778
#	75333
#	96331
#	110474
#	131273
#	159207
#	179114
#	188915
#	204903
#	228642
#
# Disc length: 3378 seconds
#
# Revision: 1
# Processed by: cddbd v1.5.2PL0 Copyright (c) Steve Scherf et al.
# Submitted via: audiograbber 1.83.01
#
DISCID=a20d300d
DTITLE=Mark Selby - Blue Highway
DYEAR=2012
DGENRE=Blues
TTITLE0=I Will Not Go Quietly
TTITLE1=Change A Comin
TTITLE2=Gotta Be Enough
TTITLE3=Forty Days, Forty Nights
TTITLE4=Another Man
TTITLE5=This Is Why We Rock and Roll
TTITLE6=A Little While
TTITLE7=Trouble Wants
TTITLE8=Let's Spend The Nigh Together
TTITLE9=Black Diamond
TTITLE10=Hell's Hip Pocket
TTITLE11=Mile Zero
TTITLE12=Backroad Jam (Bonustrack)
EXTD=
EXTT0=
EXTT1=
EXTT2=
EXTT3=
EXTT4=
EXTT5=
EXTT6=
EXTT7=
EXTT8=
EXTT9=
EXTT10=
EXTT11=
EXTT12=
PLAYORDER=
